{"title":"Catwoman (2004) - DVDRip - MP3 - ENG","uid":4344003,"size":737643081,"categoryP":"video","categoryS":"movies","magnet":"?xt=urn:btih:06a88595615cc421670f2f579d7357559b3fc4a4&amp;dn=Catwoman+%282004%29+-+DVDRip+-+MP3+-+ENG&amp;tr=udp%3A%2F%2Ftracker.openbittorrent.com%3A80&amp;tr=udp%3A%2F%2Fopen.demonii.com%3A1337&amp;tr=udp%3A%2F%2Ftracker.coppersurfer.tk%3A6969&amp;tr=udp%3A%2F%2Fexodus.desync.com%3A6969","seeders":12,"leechers":0,"uploader":"206andy206","files":-1,"time":1218770328,"description":"IMDB: http://www.imdb.com/title/tt0327554/\nUser Rating: 3.2/10 (25,500 votes)\nRelease Date: 13 August 2004 (UK)\nGenre: Action | Crime\n\nPlot:\nA shy woman, endowed with the speed, reflexes, and senses of a cat, walks a thin line between criminal and hero, even as a detective doggedly pursues her, fascinated by both of her personas.\n\n\nHalle Berry ... Patience Phillips / Catwoman\nBenjamin Bratt ... Tom Lone\nSharon Stone ... Laurel Hedare\nLambert Wilson ... George Hedare\nFrances Conroy ... Ophelia\n\n\nGeneral\nComplete name                    : D:DVDCatwomanCatwoman.avi\nFormat                           : AVI\nFormat/Info                      : Audio Video Interleave\nFile size                        : 703 MiB\nDuration                         : 1h 39mn\nOveral bit rate                  : 984 Kbps\nWriting application              : VirtualDubMod 1.5.4.1 (build 2178/release)\nWriting library                  : VirtualDubMod build 2178/release\nIAS1                             : English\n\nVideo\nFormat                           : MPEG-4 Visual\nFormat profile                   : Streaming Video@L1\nFormat settings, BVOP            : Yes\nFormat settings, QPel            : No\nFormat settings, GMC             : No warppoints\nFormat settings, Matrix          : Custom\nCodec ID                         : XVID\nCodec ID/Hint                    : XviD\nDuration                         : 1h 39mn\nBit rate                         : 849 Kbps\nWidth                            : 608 pixels\nHeight                           : 256 pixels\nDisplay aspect ratio             : 2.35\nFrame rate                       : 25.000 fps\nResolution                       : 8 bits\nColorimetry                      : 4:2:0\nScan type                        : Progressive\nBits/(Pixel*Frame)               : 0.218\nStream size                      : 607 MiB (86%)\nWriting library                  : XviD 1.1.2 (UTC 2006-11-01)\n\nAudio\nFormat                           : MPEG Audio\nFormat version                   : Version 1\nFormat profile                   : Layer 3\nCodec ID                         : 55\nCodec ID/Hint                    : MP3\nDuration                         : 1h 39mn\nBit rate mode                    : Constant\nBit rate                         : 128 Kbps\nMinimum bit rate                 : 128 Kbps\nChannel(s)                       : 2 channels\nSampling rate                    : 48.0 KHz\nResolution                       : 16 bits\nStream size                      : 91.5 MiB (13%)\nWriting library                  : LAME3.97 \nEncoding settings                : CBR\n\n\n\nTrackers:\nhttp://www.torrent-downloads.to:5869/announce\nhttp://open.tracker.thepiratebay.se:80/announce\nhttp://tpb.tracker.thepiratebay.se:80/announce\nhttp://vip.tracker.thepiratebay.se/announce\n\nInfo Hash:\n06A88595615CC421670F2F579D7357559B3FC4A4","torrent":{"xt":"urn:btih:06a88595615cc421670f2f579d7357559b3fc4a4","amp;dn":"Catwoman+%282004%29+-+DVDRip+-+MP3+-+ENG","amp;tr":["udp%3A%2F%2Ftracker.openbittorrent.com%3A80","udp%3A%2F%2Fopen.demonii.com%3A1337","udp%3A%2F%2Ftracker.coppersurfer.tk%3A6969","udp%3A%2F%2Fexodus.desync.com%3A6969"],"infoHash":"06a88595615cc421670f2f579d7357559b3fc4a4","infoHashBuffer":{"type":"Buffer","data":[6,168,133,149,97,92,196,33,103,15,47,87,157,115,87,85,155,63,196,164]},"announce":[],"urlList":[]}}